<svg width="96" height="96" xmlns="http://www.w3.org/2000/svg" xmlns:xlink="http://www.w3.org/1999/xlink" overflow="hidden"><defs><clipPath id="clip0"><rect x="285" y="275" width="96" height="96"/></clipPath></defs><g clip-path="url(#clip0)" transform="translate(-285 -275)"><path d="M332.986 285C312.011 285 295.007 302.004 295.007 322.979 295.007 343.954 312.011 360.958 332.986 360.958 353.961 360.958 370.965 343.954 370.965 322.979 370.965 322.978 370.965 322.976 370.965 322.975 370.972 302.009 353.982 285.007 333.016 285 333.006 285 332.996 285 332.986 285ZM351.605 326.36 336.367 326.36 336.367 341.594 329.605 341.594 329.605 326.356 314.367 326.356 314.367 319.594 329.605 319.594 329.605 304.356 336.367 304.356 336.367 319.594 351.605 319.594Z" fill="#385723"/></g></svg>